Coordinates
version=1
nRows=9
nColumns=36
inDegrees=yes

Units are S.I. units (second, meters, Newtons, ...)
If the header above contains a line with 'inDegrees', this indicates whether rotational values are in degrees (yes) or radians (no).

endheader
time	pelvis_tilt	pelvis_list	pelvis_rotation	pelvis_tx	pelvis_ty	pelvis_tz	hip_flexion_r	hip_adduction_r	hip_rotation_r	knee_angle_r	knee_angle_r_beta	ankle_angle_r	subtalar_angle_r	mtp_angle_r	hip_flexion_l	hip_adduction_l	hip_rotation_l	knee_angle_l	knee_angle_l_beta	ankle_angle_l	subtalar_angle_l	mtp_angle_l	lumbar_extension	lumbar_bending	lumbar_rotation	arm_flex_r	arm_add_r	arm_rot_r	elbow_flex_r	pro_sup_r	arm_flex_l	arm_add_l	arm_rot_l	elbow_flex_l	pro_sup_l
     29.88333330	     -0.87117712	     -2.33589049	      2.15390601	      0.61520917	      0.78373726	      0.68628634	     33.89040938	      1.77074386	     -1.44034622	     20.36093897	      0.35536542	      2.94295527	     -5.51122149	     -7.49999987	    -15.63536564	      0.24825994	     -0.58474984	     14.45724408	      0.25232651	     20.16937249	      0.45834993	     -7.49999987	     -8.24626653	      4.73765669	     -7.75868233	      4.39633738	    -11.40396245	     -3.36517151	     11.50437489	     95.57707585	     10.81663206	    -12.69034907	     10.46103633	     20.13975450	     95.54039037
     29.90000000	     -0.53082380	     -2.48843652	      1.74967471	      0.61813287	      0.78997591	      0.68670003	     33.24807450	      2.10460617	     -1.79696139	     22.68581713	      0.39594220	      2.34045178	     -5.91361526	     -7.49999987	    -15.37735562	     -0.05235778	     -2.51229979	     17.12244061	      0.29884296	     17.47512811	      0.14862724	     -7.49999987	     -8.70376720	      5.21754558	     -7.49081340	      3.77304869	    -12.01359483	     -3.34685984	     11.46460789	     95.49494139	      9.98307647	    -12.32061179	     10.47960312	     19.86662008	     95.42695637
     29.91666670	     -0.31879866	     -2.50820440	      1.25614679	      0.62003136	      0.79620047	      0.68859751	     32.51490153	      2.49469560	     -1.44667427	     24.61577910	      0.42962639	      1.77666412	     -7.20066455	     -7.49999987	    -14.25181010	     -0.42142776	     -4.63233664	     20.77267321	      0.36255154	     14.04384066	      0.05895565	     -7.49999987	     -8.99582908	      5.39546166	     -6.54269016	      3.10768289	    -12.60807245	     -3.12041880	     10.76442926	     95.65900939	      9.85335366	    -11.71822349	     10.52306863	     18.80469868	     95.45302470
     29.93333330	      0.06195512	     -2.67453618	      1.12150338	      0.62084556	      0.80053072	      0.69111435	     31.20613364	      2.87741139	     -1.50777937	     25.95244038	      0.45295553	      1.94138390	     -7.73476100	     -7.49999987	    -12.32283794	     -1.36391114	     -6.66072500	     25.86864885	      0.45149310	      9.89953484	      0.14847765	     -7.49999987	     -9.56958576	      5.83622993	     -6.15744955	      2.68481967	    -13.14780799	     -3.09610115	     10.57818694	     95.57273382	      9.58065693	    -11.35932263	     10.69214093	     18.31466206	     95.37428200
     29.95000000	      0.13941742	     -3.02089463	      1.32190085	      0.62122481	      0.80282912	      0.69402088	     29.89636489	      3.36387353	     -1.72126012	     26.71483589	      0.46626185	      2.44186661	     -8.19062469	     -7.49999987	     -8.84376694	     -3.01221589	     -8.45702828	     32.86513289	      0.57360478	      5.14485041	      0.16201592	     -7.49999987	     -9.72483054	      6.35658538	     -5.79075643	      2.22263839	    -13.59762874	     -3.14018758	     10.23139050	     95.49426128	      9.52850743	    -10.94233355	     10.95891094	     17.54920985	     95.37312062
     29.96666670	      0.23530537	     -3.44509661	      1.65316786	      0.62145160	      0.80394304	      0.69585690	     28.38823080	      3.87908891	     -2.06732357	     26.96197240	      0.47057519	      3.25074061	     -8.47333628	     -7.49999987	     -4.80839964	     -4.92443230	     -9.64616677	     40.42542473	      0.70555676	      0.57802939	     -0.20271449	     -7.49999987	    -10.03427630	      6.94278056	     -5.39886297	      1.84128766	    -14.08016319	     -3.20962225	     10.14690667	     95.32852233	      9.41520016	    -10.58940933	     11.12064420	     17.10913615	     95.27761013
     29.98333330	     -1.62026134	     -3.75918902	      2.18730720	      0.62250571	      0.80294993	      0.69630830	     28.83876494	      4.03151706	     -2.61855194	     26.83615142	      0.46837920	      3.85300199	     -8.84958206	     -7.49999987	      1.41064822	     -6.41542154	     -9.64452400	     47.39694756	      0.82723279	     -2.54206844	     -0.91227801	     -7.49999987	     -7.14622013	      7.20855499	     -5.40953616	      0.77541498	    -14.37432886	     -3.38853395	      9.86120274	     95.08068141	      8.77869987	    -10.10904397	     11.67951827	     15.19506629	     95.29298077
     30.00000000	     -2.09509537	     -4.10810701	      2.76313181	      0.62343363	      0.80403150	      0.69670280	     27.51488815	      4.24106329	     -3.28121318	     26.10498963	      0.45561802	      4.32614802	     -9.09926127	     -7.49999987	      5.50672340	     -7.49995523	     -9.15152389	     52.36619542	      0.91396253	     -3.66907139	     -1.67367674	     -7.49999987	     -6.17420788	      7.57654426	     -5.06470258	      0.11507061	    -14.73999153	     -3.43926997	      9.67938104	     94.90249300	      8.20812575	     -9.73206166	     11.87260220	     14.40176145	     95.17178088
     30.01666670	     -3.44177678	     -4.16858050	      3.16521902	      0.62490205	      0.80428013	      0.69890740	     27.29175286	      4.18924766	     -3.73786404	     25.81637222	      0.45058070	      5.08067842	     -9.36653861	     -7.49999987	     10.07112344	     -7.94901327	     -8.54903678	     56.00006620	      0.97738554	     -2.97031145	     -2.35706315	     -7.49999987	     -3.70988218	      7.45016817	     -4.93697792	     -0.61695286	    -14.89322106	     -3.43109496	      9.31552937	     94.56982284	      7.39596656	     -9.34842997	     12.12769315	     12.86130751	     94.85143531
